<?xml version="1.0" encoding="UTF-8"?>
<svg xmlns="http://www.w3.org/2000/svg" xmlns:xlink="http://www.w3.org/1999/xlink" width="18pt" height="20pt" viewBox="0 0 18 20" version="1.1">
<g id="surface1">
<path style=" stroke:none;fill-rule:nonzero;fill:rgb(100%,100%,100%);fill-opacity:1;" d="M 1.414062 11.308594 L 0.511719 10.441406 C 0.132812 10.074219 0.132812 9.480469 0.511719 9.117188 L 8.382812 1.523438 C 8.761719 1.15625 9.382812 1.15625 9.753906 1.523438 L 17.625 9.113281 C 18.007812 9.480469 18.007812 10.074219 17.625 10.4375 L 16.726562 11.304688 C 16.34375 11.675781 15.714844 11.667969 15.339844 11.289062 L 10.691406 6.585938 L 10.691406 17.8125 C 10.691406 18.332031 10.261719 18.75 9.722656 18.75 L 8.421875 18.75 C 7.882812 18.75 7.453125 18.332031 7.453125 17.8125 L 7.453125 6.585938 L 2.804688 11.292969 C 2.425781 11.675781 1.796875 11.683594 1.414062 11.308594 Z M 1.414062 11.308594 "/>
</g>
</svg>
