<svg width="53" height="45" viewBox="0 0 53 45" fill="none" xmlns="http://www.w3.org/2000/svg">
<path d="M38.0067 29.0011C40.1299 27.1622 41.921 24.9574 43.2986 22.4869C43.2986 22.4869 36.8562 9.97696 22.1677 9.95067C8.87279 9.93519 0.97914 22.4248 0.97914 22.4248C2.66875 24.9608 4.68008 27.2568 6.96058 29.253C13.3233 34.8834 25.7339 39.5511 37.9908 28.988" stroke="#225189" stroke-width="1.5" stroke-linecap="round" stroke-linejoin="round"/>
<path d="M48.064 22.4956C50.9082 18.4813 46.1717 16.487 46.1717 16.487L46.0897 16.8108C45.4483 18.8076 44.5765 20.7193 43.4926 22.5057C44.566 24.2884 45.429 26.1947 46.0636 28.1846C46.0949 28.2993 46.125 28.4043 46.1457 28.5103C46.1664 28.6163 50.901 26.517 48.064 22.4956Z" stroke="#225189" stroke-width="1.5" stroke-linecap="round" stroke-linejoin="round"/>
<path d="M13.4733 29.3765C20.7013 33.2745 30.3189 31.7513 35.94 25.6687C36.3686 25.2039 35.6054 24.5833 35.1811 25.0428C29.8513 30.823 20.7015 32.1182 13.8606 28.4684C13.3043 28.1697 12.9223 29.0821 13.4733 29.3765Z" fill="#61B3F2"/>
</svg>
