<svg width="95" height="94" viewBox="0 0 95 94" fill="none" xmlns="http://www.w3.org/2000/svg">
<path d="M77.5132 64.6719C77.2666 64.6707 77.0247 64.6044 76.8118 64.4799C76.599 64.3553 76.4228 64.1768 76.301 63.9624C76.1793 63.748 76.1162 63.5053 76.1183 63.2587C76.1204 63.0122 76.1875 62.7705 76.3129 62.5582C78.8682 58.2644 80.3752 53.4289 80.7117 48.4439C81.1013 42.884 80.0391 37.3183 77.629 32.2925C75.219 27.2666 71.5439 22.9532 66.9641 19.7751C62.3843 16.597 57.057 14.6633 51.5045 14.1636C45.952 13.6639 40.3649 14.6154 35.291 16.9247C35.1242 17.001 34.944 17.0436 34.7608 17.0503C34.5775 17.0569 34.3947 17.0274 34.2228 16.9634C33.8757 16.8342 33.5942 16.5724 33.4401 16.2356C33.2861 15.8989 33.2721 15.5147 33.4014 15.1677C33.5307 14.8207 33.7925 14.5392 34.1294 14.3852C39.6437 11.8726 45.7166 10.8362 51.7524 11.3777C57.7882 11.9192 63.5795 14.0201 68.5582 17.4742C73.5369 20.9284 77.5319 25.6171 80.1513 31.0803C82.7707 36.5436 83.9246 42.5938 83.4996 48.6374C83.1339 54.0577 81.4942 59.3153 78.7136 63.9828C78.5903 64.1917 78.4148 64.365 78.2044 64.4858C77.994 64.6066 77.7559 64.6707 77.5132 64.6719Z" fill="#D9E6FF"/>
<path d="M63.7747 1.78071L62.0477 8.16816L62.6672 8.35397L61.9547 10.7851L61.2345 10.5915L61.6295 8.85723L57.1223 7.64167L56.5956 9.34499L55.8677 9.15144L56.4717 6.68162L57.0138 6.8055C57.4373 6.38561 57.8138 5.92092 58.1368 5.41962C58.6583 4.50647 59.0468 3.52361 59.2907 2.50075L59.7786 0.696777L63.7747 1.78071ZM60.0651 3.04271C59.8262 4.03171 59.4398 4.97914 58.919 5.85319C58.6485 6.28629 58.3317 6.68868 57.9741 7.05326L61.1261 7.90492L62.675 2.2917L60.4059 1.69554L60.0651 3.04271Z" fill="white"/>
<path d="M66.9732 8.56285L65.2229 10.2739L64.3401 9.81711L69.9857 4.39746L71.0002 4.93168L69.8386 12.674L68.9247 12.194L69.2965 9.77066L66.9732 8.56285ZM69.4668 9.01965L69.8076 6.79759C69.885 6.29434 69.9857 5.85303 70.0864 5.41945C69.7844 5.76012 69.4668 6.10078 69.1338 6.4337L67.5075 7.98217L69.4668 9.01965Z" fill="white"/>
<path d="M76.4059 8.40039C76.952 8.69955 77.4703 9.04675 77.9548 9.43787C78.5718 9.85836 79.0106 10.493 79.1861 11.2186C79.23 11.5052 79.2105 11.798 79.1288 12.0763C79.0472 12.3545 78.9055 12.6115 78.7137 12.829C78.5444 13.0613 78.3305 13.2576 78.0845 13.4065C77.8385 13.5553 77.5654 13.6538 77.281 13.6962C76.8703 13.7243 76.4581 13.6704 76.0685 13.5374C75.6789 13.4045 75.3197 13.1952 75.0119 12.9219C74.7936 12.7699 74.5958 12.5903 74.4234 12.3877L72.5647 14.7104L71.7903 14.1065L76.4059 8.40039ZM74.9113 11.7761C75.0764 11.9819 75.2662 12.1665 75.4766 12.3258C76.3749 13.0535 77.2733 13.0535 77.9161 12.2638C78.5588 11.4741 78.2878 10.7154 77.4669 10.0418C77.2314 9.84155 76.9711 9.67241 76.6925 9.53852L74.9113 11.7761Z" fill="white"/>
<path d="M85.4434 16.6307L84.9323 17.041C85.2055 17.3723 85.4067 17.7568 85.5233 18.17C85.6399 18.5833 85.6693 19.0162 85.6096 19.4414C85.5499 19.8666 85.4024 20.2747 85.1764 20.6399C84.9505 21.0051 84.6511 21.3193 84.2973 21.5626C83.9841 21.8522 83.6146 22.074 83.2117 22.2142C82.8088 22.3544 82.3813 22.4098 81.956 22.3771C81.5306 22.3444 81.1166 22.2242 80.7399 22.0241C80.3632 21.824 80.0319 21.5482 79.7668 21.2141L79.2324 21.6477L78.6516 20.9354L79.186 20.5019C78.2876 19.2321 77.9391 17.4978 79.7591 16.0268C80.0759 15.7246 80.452 15.4915 80.8637 15.3423C81.2754 15.1932 81.7136 15.1312 82.1505 15.1603C82.5874 15.1894 83.0135 15.309 83.4017 15.5115C83.7899 15.714 84.1318 15.9949 84.4057 16.3365L84.9168 15.9184L85.4434 16.6307ZM83.8094 16.7623C83.1588 16.0423 81.9043 15.5545 80.4096 16.7623C79.0311 17.8772 79.1163 19.1624 79.7126 20.076L83.8094 16.7623ZM80.2934 20.7883C81.0291 21.5626 82.2605 21.9419 83.6855 20.7883C85.1104 19.6347 85.0097 18.334 84.3825 17.4668L80.2934 20.7883Z" fill="white"/>
<path d="M89.7493 23.676L86.9459 25.0309C85.8849 25.5341 85.002 25.9367 84.0882 26.3084C84.9401 26.3084 85.8617 26.378 86.8839 26.4787L91.3602 26.9819L91.7706 27.8723L85.1027 31.0854L84.7155 30.3112L87.5499 28.9485C88.6264 28.4298 89.4241 28.0581 90.2992 27.7175C89.3495 27.7258 88.4002 27.6741 87.457 27.5626L83.1356 27.0671L82.6942 26.1535L89.3621 22.9404L89.7493 23.676Z" fill="white"/>
<path d="M94.4037 36.9695L87.2014 38.7115L86.9768 37.767L93.3969 36.2185L92.8393 33.8339L90.6554 34.3526C89.1065 34.7242 87.3408 35.0726 86.4192 34.2132C86.1301 33.9358 85.9214 33.5853 85.8152 33.199L86.5354 32.9048C86.6637 33.1715 86.8583 33.4008 87.1008 33.5706C87.8055 34.0119 89.215 33.7332 90.3689 33.4622L93.4047 32.7422L94.4037 36.9695Z" fill="white"/>
<path d="M94.9999 42.3893L92.2352 42.4744C92.2804 42.7746 92.3088 43.077 92.3204 43.3803C92.3669 44.9288 91.7396 46.2527 90.1055 46.3069C89.5263 46.3498 88.9534 46.1635 88.5102 45.7882C88.1864 45.4349 87.9356 45.0212 87.7721 44.5708C87.6086 44.1204 87.5357 43.6421 87.5576 43.1635C87.5251 42.6659 87.5251 42.1668 87.5576 41.6692L94.9303 41.4292L94.9999 42.3893ZM88.3398 42.5983C88.3157 42.8558 88.3157 43.115 88.3398 43.3725C88.3398 44.4332 88.9206 45.3236 90.0513 45.2926C91.182 45.2617 91.6002 44.3016 91.6002 43.2564C91.5898 42.997 91.5639 42.7385 91.5227 42.4822L88.3398 42.5983Z" fill="white"/>
<path d="M46.2803 81.0315H46.1797C39.6567 80.5702 33.394 78.2885 28.1035 74.446C22.813 70.6034 18.707 65.354 16.2521 59.2946C13.7972 53.2351 13.0919 46.6087 14.2165 40.1685C15.3411 33.7283 18.2503 27.7327 22.6136 22.8632C22.7362 22.7269 22.8843 22.6162 23.0497 22.5372C23.2151 22.4582 23.3944 22.4125 23.5774 22.4028C23.7604 22.3931 23.9436 22.4196 24.1164 22.4806C24.2892 22.5417 24.4483 22.6361 24.5845 22.7587C24.7208 22.8812 24.8316 23.0293 24.9106 23.1947C24.9896 23.36 25.0353 23.5393 25.045 23.7222C25.0547 23.9052 25.0283 24.0883 24.9672 24.2611C24.9061 24.4338 24.8116 24.5929 24.6891 24.7291C20.6771 29.2095 18.0025 34.7251 16.9694 40.6492C15.9362 46.5733 16.5859 52.6683 18.8446 58.2417C21.1032 63.8151 24.8803 68.6434 29.7466 72.1779C34.6129 75.7124 40.3733 77.8115 46.3733 78.2365C46.7271 78.272 47.0543 78.4405 47.2885 78.7081C47.5227 78.9756 47.6465 79.3222 47.6347 79.6775C47.6228 80.0328 47.4764 80.3704 47.2249 80.6218C46.9734 80.8732 46.6358 81.0197 46.2803 81.0315Z" fill="#D9E6FF"/>
<path d="M14.784 23.0102L12.0425 21.1985L11.8799 21.4463L13.2197 25.3716L12.5769 26.324L11.2991 22.1121C10.4859 23.0412 9.60304 23.018 8.55755 22.7934C7.83542 22.5867 7.10078 22.4263 6.35815 22.3134L6.96996 21.4617C7.5877 21.5574 8.1983 21.6945 8.79763 21.8721C9.79665 22.1276 10.6176 22.1044 11.3068 21.0591L11.4772 20.8036L8.65048 18.93L9.16936 18.1558L15.3648 22.2437L14.784 23.0102Z" fill="white"/>
<path d="M9.58736 32.9827L2.75684 30.1335L3.09759 29.2431L9.18465 31.7826L10.1295 29.5296L8.0927 28.6469C6.61352 28.0275 4.99495 27.2843 4.74714 26.0455C4.67437 25.6507 4.71189 25.2435 4.85556 24.8687L5.62999 25.0545C5.57088 25.3463 5.5923 25.6487 5.69195 25.9294C6.00172 26.7036 7.30277 27.2998 8.39473 27.7566L11.2756 28.9566L9.58736 32.9827Z" fill="white"/>
<path d="M8.74337 35.8315L5.35134 36.6057L3.95736 36.8458C4.30585 37.0548 4.73179 37.2871 5.16548 37.62L7.96119 39.4162L7.74435 40.3763L4.37555 38.0536C3.48675 37.4882 2.6634 36.8261 1.92059 36.0793C1.69166 35.8367 1.52433 35.5427 1.43269 35.2221C1.34105 34.9014 1.32777 34.5634 1.39398 34.2366C1.41891 34.0593 1.47116 33.8869 1.54886 33.7256L2.3233 33.9966C2.2696 34.101 2.233 34.2134 2.21488 34.3295C2.19438 34.6699 2.2708 35.0091 2.43528 35.3078C2.59977 35.6066 2.84557 35.8526 3.1442 36.0173C3.2041 36.0687 3.2771 36.1024 3.35504 36.1147C3.43298 36.127 3.51282 36.1174 3.58563 36.087L9.00668 34.7708L8.74337 35.8315Z" fill="white"/>
<path d="M7.32617 46.3611L6.55173 46.3224L6.71436 43.1325L4.73181 43.0319C4.75119 43.3361 4.75119 43.6413 4.73181 43.9455C4.7177 44.6168 4.51069 45.2699 4.13549 45.8269C3.92894 46.1188 3.64914 46.3512 3.32422 46.5007C2.99931 46.6502 2.64074 46.7116 2.28459 46.6785C1.99295 46.6717 1.70564 46.6065 1.43962 46.4868C1.1736 46.3672 0.934256 46.1954 0.73572 45.9817C0.172361 45.2288 -0.0899624 44.293 6.52485e-06 43.3571C0.0271317 42.8381 0.0840171 42.3211 0.170382 41.8086L7.54301 42.188L7.32617 46.3611ZM0.836397 42.8306C0.781361 43.0852 0.750248 43.3444 0.743465 43.6048C0.698515 44.1648 0.87352 44.7202 1.23136 45.1533C1.36861 45.3099 1.53605 45.4373 1.72367 45.5278C1.9113 45.6182 2.11524 45.6699 2.32331 45.6798C2.55881 45.7013 2.79592 45.6628 3.01257 45.5681C3.22922 45.4733 3.41837 45.3253 3.56241 45.1378C3.84724 44.7311 4.00369 44.2484 4.01158 43.7519C4.01158 43.5351 4.01158 43.2332 4.01158 42.9777L0.836397 42.8306Z" fill="white"/>
<path d="M7.74451 52.8569C7.96799 53.4293 8.1416 54.0199 8.26339 54.6222C8.47346 55.3395 8.40999 56.1091 8.08527 56.7823C7.93854 57.0309 7.73906 57.2444 7.50089 57.4076C7.26272 57.5708 6.99164 57.6798 6.70677 57.7269C6.42774 57.8009 6.13674 57.8185 5.85082 57.7786C5.5649 57.7387 5.28983 57.6422 5.04173 57.4946C4.70577 57.2551 4.42104 56.951 4.20426 56.6C3.98749 56.249 3.84305 55.8582 3.77941 55.4506C3.7206 55.1967 3.68944 54.9371 3.68647 54.6764L0.774595 55.2958L0.573242 54.359L7.74451 52.8569ZM4.42993 54.5293C4.42658 54.7899 4.45519 55.0499 4.51512 55.3035C4.75519 56.4262 5.44444 56.9991 6.44346 56.7901C7.44248 56.581 7.74451 55.83 7.50444 54.8003C7.45031 54.5021 7.36196 54.2111 7.24113 53.9331L4.42993 54.5293Z" fill="white"/>
<path d="M9.7346 60.3902L7.18671 61.4509C7.30287 61.6368 7.48874 62.0161 7.58941 62.2252C8.18573 63.6265 8.0928 65.1131 6.58265 65.7634C6.06094 66.0101 5.46354 66.0434 4.91761 65.8563C4.06199 65.4304 3.40829 64.6851 3.09769 63.7814C2.90261 63.328 2.73705 62.8625 2.60205 62.3878L9.37836 59.4844L9.7346 60.3902ZM3.60882 62.9839C3.6681 63.2338 3.75109 63.4775 3.85664 63.7117C4.27483 64.6795 5.12671 65.3066 6.17994 64.8653C7.23317 64.424 7.25641 63.3168 6.86919 62.4265C6.76709 62.1924 6.65071 61.9649 6.52069 61.7451L3.60882 62.9839ZM11.9108 65.4382L5.10348 68.3494L4.724 67.459L11.5313 64.5479L11.9108 65.4382Z" fill="white"/>
<path d="M15.6514 71.1678L14.9854 71.6246L13.1654 68.9922L11.5391 70.1148C11.7403 70.3446 11.929 70.585 12.1045 70.8349C12.4988 71.3789 12.7322 72.0228 12.7782 72.693C12.7898 73.0514 12.7072 73.4065 12.5387 73.7231C12.3702 74.0396 12.1217 74.3064 11.8179 74.497C11.5803 74.6725 11.3095 74.798 11.022 74.8659C10.7345 74.9338 10.4362 74.9426 10.1451 74.8919C9.24041 74.6206 8.4715 74.0178 7.99221 73.204C7.70691 72.7953 7.44823 72.3686 7.21777 71.9266L13.2971 67.7534L15.6514 71.1678ZM8.34845 72.3137C8.45989 72.5575 8.59752 72.7886 8.7589 73.0027C8.90875 73.244 9.10502 73.4531 9.33634 73.6179C9.56766 73.7827 9.82942 73.8999 10.1064 73.9628C10.304 73.9939 10.5057 73.9853 10.6999 73.9374C10.894 73.8896 11.0767 73.8034 11.2371 73.6841C11.4371 73.558 11.6018 73.3831 11.7156 73.1759C11.8294 72.9687 11.8886 72.7359 11.8876 72.4995C11.8676 72.0062 11.6974 71.5308 11.3997 71.1368C11.2758 70.951 11.09 70.7187 10.9351 70.5329L8.34845 72.3137Z" fill="white"/>
<path d="M14.6291 77.7719L12.4375 78.8558L11.7405 78.159L18.7646 74.7446L19.539 75.5653L16.0618 82.5334L15.3416 81.8057L16.4413 79.6068L14.6291 77.7719ZM16.8595 78.972L17.8663 76.9589C18.0909 76.5021 18.3309 76.115 18.5555 75.7356C18.1683 75.9679 17.7811 76.1925 17.3396 76.4092L15.2951 77.4235L16.8595 78.972Z" fill="white"/>
<path d="M27.3066 81.5968L23.1557 87.721L22.3812 87.1791L26.083 81.7594L24.0075 80.3503L22.753 82.2007C21.8546 83.5324 20.7936 84.9725 19.5391 84.9725C19.1351 84.9609 18.7418 84.8405 18.4006 84.6241L18.7336 83.9195C19.0071 84.0352 19.3067 84.0754 19.601 84.0357C20.4219 83.8808 21.2738 82.7272 21.9243 81.713L23.6745 79.1348L27.3066 81.5968Z" fill="white"/>
<path d="M30.5437 83.2767L29.2117 86.273L29.4827 86.3969L33.1303 84.3916L34.1835 84.8561L30.2572 86.8227C31.3026 87.4653 31.4343 88.3712 31.3801 89.4086C31.2954 90.1539 31.2592 90.9039 31.2717 91.6539L30.3269 91.2358C30.3126 90.6124 30.3436 89.9888 30.4198 89.3699C30.505 88.3402 30.3423 87.535 29.2039 87.0472L28.9251 86.9233L27.5466 90.0203L26.687 89.6409L29.6841 82.8818L30.5437 83.2767Z" fill="white"/>
<path d="M37.0026 85.7312L36.2901 88.7739C36.0268 89.912 35.7867 90.8488 35.5156 91.8012C36.0578 91.1353 36.685 90.4617 37.4053 89.7262L40.6037 86.5596L41.533 86.7764L39.8525 93.9845L38.9774 93.7755L39.6976 90.6785C39.9687 89.5094 40.1777 88.6578 40.472 87.7674C39.8821 88.5113 39.2458 89.2173 38.5669 89.8811L35.4692 92.978L34.4779 92.7457L36.1584 85.5376L37.0026 85.7312Z" fill="white"/>
<path d="M29.0723 10.1191V39.4859C29.0713 40.9012 29.3491 42.3029 29.8899 43.6108C30.4307 44.9188 31.2239 46.1074 32.2242 47.1089C33.2245 48.1104 34.4124 48.9051 35.7199 49.4477C37.0274 49.9902 38.429 50.27 39.8447 50.271V50.271C41.261 50.271 42.6634 49.992 43.9718 49.4499C45.2802 48.9078 46.469 48.1133 47.4701 47.1117C48.4712 46.1101 49.2651 44.9211 49.8064 43.6126C50.3477 42.3041 50.6258 40.9019 50.6248 39.4859V30.3732L47.2792 33.7101" stroke="white" stroke-width="2.44" stroke-linecap="round" stroke-linejoin="round"/>
<path d="M33.417 5.53556C33.417 6.44395 33.1475 7.33192 32.6425 8.08711C32.1375 8.8423 31.4198 9.43076 30.5802 9.77803C29.7406 10.1253 28.8168 10.2158 27.9258 10.038C27.0347 9.86021 26.2165 9.42216 25.5745 8.7793C24.9326 8.13643 24.4958 7.31763 24.3195 6.42651C24.1432 5.53539 24.2352 4.61201 24.584 3.77321C24.9328 2.93441 25.5226 2.21789 26.2788 1.71434C27.0351 1.21078 27.9237 0.942811 28.8323 0.944342C29.435 0.944342 30.0319 1.06315 30.5886 1.29398C31.1453 1.5248 31.6511 1.86311 32.0769 2.28955C32.5027 2.71598 32.8403 3.22218 33.0702 3.77916C33.3002 4.33615 33.418 4.933 33.417 5.53556V5.53556Z" stroke="white" stroke-width="2.44" stroke-linecap="round" stroke-linejoin="round"/>
<path d="M54.2646 33.7723L50.741 30.2495" stroke="white" stroke-width="2.44" stroke-linecap="round" stroke-linejoin="round"/>
<path d="M61.6065 78.6623C64.7321 79.2568 67.9378 79.2987 71.0779 78.7862C71.0779 78.7862 77.343 64.2615 66.8185 51.1847C57.2852 39.3544 40.7432 41.1196 40.7432 41.1196C39.7486 44.405 39.194 47.8078 39.0937 51.2389C38.7607 60.8549 43.6086 75.1705 61.6065 78.6391" stroke="white" stroke-width="2.44" stroke-linecap="round" stroke-linejoin="round"/>
<path d="M74.4927 83.029C80.0299 82.7348 78.3649 77.1216 78.3649 77.1216L78.0241 77.2764C75.8252 78.1102 73.5348 78.6794 71.2014 78.972C70.4201 81.1799 69.3803 83.2875 68.1036 85.2511C68.0262 85.3595 67.9565 85.4601 67.879 85.553C67.8016 85.6459 73.029 88.379 74.4927 83.029Z" stroke="white" stroke-width="2.44" stroke-linecap="round" stroke-linejoin="round"/>
<path d="M43.6627 57.1156C45.4593 66.2826 53.6916 73.7617 63.0235 74.4817C63.736 74.5359 63.7283 73.421 63.0235 73.3668C54.164 72.6933 46.4661 65.4696 44.7314 56.8214C44.592 56.1169 43.5233 56.4188 43.6627 57.1156Z" fill="white"/>
</svg>
